<svg xmlns="http://www.w3.org/2000/svg" width="11.1" height="12">
  <path fill="#222933" d="M.9 11.1h1.9V9.2H.9zm2.4 0h2.1V9.2H3.2zM.9 8.8h1.9V6.6H.9zm2.4 0h2.1V6.6H3.2zM.9 6.2h1.9V4.3H.9zm4.9 4.9h2.1V9.2H5.8zM3.2 6.2h2.2V4.3H3.2zm5.1 4.9h1.9V9.2H8.4zM5.8 8.8h2.1V6.6H5.8zM3.4 3V1.1a.2.2 0 00-.2-.2h-.4a.2.2 0 00-.2.2V3a.2.2 0 00.2.2h.4a.2.2 0 00.2-.2zm5 5.8h1.9V6.6H8.4zM5.8 6.2h2.1V4.3H5.8zm2.6 0h1.9V4.3H8.4zM8.6 3V1.1a.2.2 0 00-.2-.2h-.5a.2.2 0 00-.2.2V3a.2.2 0 00.2.2h.4a.2.2 0 00.3-.2zm2.6-.4v8.6a.9.9 0 01-.9.9H.9a.9.9 0 01-.9-.9V2.6a.9.9 0 01.9-.9h.9v-.6a1.1 1.1 0 011-1.1h.4a1.1 1.1 0 011.1 1.1v.6h2.6v-.6a1.1 1.1 0 011-1.1h.4a1.1 1.1 0 011.1 1.1v.6h.9a.9.9 0 01.8.9z"/>
</svg>
