<svg xmlns="http://www.w3.org/2000/svg" width="16" height="16">
  <path d="M15.375 0H.625A.624.624 0 000 .62V13a.624.624 0 00.625.62h5.53l1.317 2.09a.626.626 0 001.056 0l1.316-2.09h5.531A.624.624 0 0016 13V.62a.624.624 0 00-.625-.62zm-.625 12.37H9.5a.616.616 0 00-.529.3L8 14.2l-.972-1.53a.613.613 0 00-.528-.3H1.25V1.25h13.5v11.12zM7.219 6.81A.781.781 0 118 7.59a.781.781 0 01-.781-.78zm-3.125 0a.781.781 0 11.781.78.781.781 0 01-.781-.78zm6.25 0a.781.781 0 11.781.78.781.781 0 01-.781-.78z" fill="#fe3e57" fill-rule="evenodd"/>
</svg>
