<svg xmlns="http://www.w3.org/2000/svg" xmlns:xlink="http://www.w3.org/1999/xlink" width="168" height="108"><defs><symbol id="a" data-name="care:hover" viewBox="0 0 45 45"><circle class="b" cx="22.5" cy="22.5" r="22.5"/><path class="a" d="M12.8 14.6h2.3l3.3 12a.8.8 0 00.8.6h10.3a.8.8 0 00.7-.5l3.7-8.6a.8.8 0 00-.1-.8.8.8 0 00-.7-.4H21.9a.8.8 0 100 1.6H32l-3 6.9h-9.1l-3.3-12a.8.8 0 00-.8-.6h-3a.8.8 0 100 1.6zM18.5 33a1.8 1.8 0 10-1.8-1.9 1.8 1.8 0 001.8 1.8zM30 33h.1a1.9 1.9 0 10-.1 0z"/></symbol><symbol id="b" data-name=".care" viewBox="0 0 45 45"><circle class="a" cx="22.5" cy="22.5" r="22.5"/><path class="b" d="M12.8 14.6h2.3l3.3 12a.8.8 0 00.8.6h10.3a.8.8 0 00.7-.5l3.7-8.6a.8.8 0 00-.1-.8.8.8 0 00-.7-.4H21.9a.8.8 0 000 1.6h10l-3 6.9h-9l-3.3-12a.8.8 0 00-.8-.6h-3a.8.8 0 100 1.6zM18.5 33a1.8 1.8 0 10-1.8-1.9 1.8 1.8 0 001.8 1.9zM30 33h.1a1.9 1.9 0 10-.1 0z"/></symbol><symbol id="c" data-name=".search:hover" viewBox="0 0 45 45"><circle class="b" cx="22.5" cy="22.5" r="22.5"/><path class="a" d="M32.5 29.8l-4.6-4.6a8.8 8.8 0 01-2.7 2.7l4.6 4.6a1.9 1.9 0 002.7-2.7zM28 20.5a7.5 7.5 0 10-7.5 7.5 7.5 7.5 0 007.5-7.5zm-7.5 5.6a5.6 5.6 0 115.6-5.6 5.6 5.6 0 01-5.6 5.6zm-4.4-5.6h1.3a3.1 3.1 0 013.1-3.1v-1.3a4.4 4.4 0 00-4.4 4.4z"/></symbol><symbol id="d" data-name=".search" viewBox="0 0 45 45"><circle class="a" cx="22.5" cy="22.5" r="22.5"/><path class="b" d="M32.5 29.8l-4.6-4.6a8.8 8.8 0 01-2.7 2.7l4.6 4.6a1.9 1.9 0 002.7-2.7zM28 20.5a7.5 7.5 0 10-7.5 7.5 7.5 7.5 0 007.5-7.5zm-7.5 5.6a5.6 5.6 0 115.6-5.6 5.6 5.6 0 01-5.6 5.6zm-4.4-5.6h1.3a3.1 3.1 0 013.1-3.1v-1.3a4.4 4.4 0 00-4.4 4.4z"/></symbol><symbol id="e" data-name=".heart:hover" viewBox="0 0 45 45"><circle class="b" cx="22.5" cy="22.5" r="22.5"/><path class="a" d="M34 19.8a6.2 6.2 0 00-1.8-4.1A5.9 5.9 0 0028 14c-2.3 0-3.9 1.8-4.8 2.7l-.2.2h-.1c-.8-.9-2.5-2.8-4.9-2.8a5.9 5.9 0 00-4.1 1.7 6.2 6.2 0 00-1.9 4 6.8 6.8 0 001.3 4.3 29.3 29.3 0 004.7 4.8c1.7 1.4 4 3.1 5 3.1s3.3-1.7 5-3.1a29.2 29.2 0 004.7-4.7 6.9 6.9 0 001.3-4.4zm-2.4 3.6a27 27 0 01-4.4 4.4c-2.4 2-3.8 2.8-4.2 2.8s-1.8-.8-4.2-2.8a26.8 26.8 0 01-4.4-4.4 5.6 5.6 0 01-1.1-3.5 4.8 4.8 0 014.7-4.6c1.9 0 3.2 1.5 3.9 2.4a1.5 1.5 0 001.1.8 1.7 1.7 0 001.2-.8c.8-.9 2.1-2.3 3.9-2.3a4.8 4.8 0 014.7 4.6 5.5 5.5 0 01-1.1 3.5z"/></symbol><symbol id="f" data-name=".heart" viewBox="0 0 45 45"><circle class="a" cx="22.5" cy="22.5" r="22.5"/><path class="b" d="M34 19.8a6.2 6.2 0 00-1.8-4.1A5.9 5.9 0 0028 14c-2.3 0-3.9 1.8-4.8 2.7l-.2.2h-.1c-.8-.9-2.5-2.8-4.9-2.8a5.9 5.9 0 00-4.1 1.7 6.2 6.2 0 00-1.9 4 6.8 6.8 0 001.3 4.3 29.3 29.3 0 004.7 4.8c1.7 1.4 4 3.1 5 3.1s3.3-1.7 5-3.1a29.2 29.2 0 004.7-4.7 6.9 6.9 0 001.3-4.4zm-2.4 3.6a27 27 0 01-4.4 4.4c-2.4 2-3.8 2.8-4.2 2.8s-1.8-.8-4.2-2.8a26.8 26.8 0 01-4.4-4.4 5.6 5.6 0 01-1.1-3.5 4.8 4.8 0 014.7-4.6c1.9 0 3.2 1.5 3.9 2.4a1.5 1.5 0 001.1.8 1.7 1.7 0 001.2-.8c.8-.9 2.1-2.3 3.9-2.3a4.8 4.8 0 014.7 4.6 5.5 5.5 0 01-1.1 3.5z"/></symbol><style>.a{fill:#fff}.b{fill:#a3bbc8}</style></defs><use width="45" height="45" transform="translate(61.5 63)" xlink:href="#a"/><use width="45" height="45" transform="translate(61.5)" xlink:href="#b"/><use width="45" height="45" transform="translate(.5 62.9)" xlink:href="#c"/><use width="45" height="45" transform="translate(.5)" xlink:href="#d"/><use width="45" height="45" transform="translate(122.5 62.9)" xlink:href="#e"/><use width="45" height="45" transform="translate(122.5)" xlink:href="#f"/></svg>