<svg xmlns="http://www.w3.org/2000/svg" xmlns:xlink="http://www.w3.org/1999/xlink" width="110" height="110">
  <defs>
    <symbol id="a" data-name="care-w" viewBox="0 0 50 50">
      <path d="M0 0h50v50H0z" class="b"/>
      <path d="M14.8 16.6h2.3l3.3 12a.8.8 0 00.8.6h10.3a.8.8 0 00.7-.5l3.7-8.6a.8.8 0 00-.1-.8.8.8 0 00-.7-.4H23.9a.8.8 0 000 1.6h10l-3 6.9h-9l-3.3-12a.8.8 0 00-.8-.6h-3a.8.8 0 000 1.6zM20.5 35a1.9 1.9 0 10-1.8-1.9 1.9 1.9 0 001.8 1.9zM32 35h.1a1.9 1.9 0 001.7-2 1.8 1.8 0 10-1.8 2z" class="a"/>
    </symbol>
    <symbol id="b" data-name="heart-w" viewBox="0 0 50 50">
      <path d="M0 0h50v50H0z" class="b"/>
      <path d="M36 21.8a6.2 6.2 0 00-1.8-4.1A5.9 5.9 0 0030 16c-2.3 0-3.9 1.8-4.8 2.7l-.2.2h-.1c-.8-.9-2.5-2.8-4.9-2.8a5.9 5.9 0 00-4.1 1.7 6.2 6.2 0 00-1.9 4 6.9 6.9 0 001.3 4.3 29.2 29.2 0 004.7 4.8c1.8 1.4 4 3.1 5 3.1s3.3-1.7 5-3.1a29.1 29.1 0 004.8-4.7 6.9 6.9 0 001.2-4.4zm-2.4 3.6a26.9 26.9 0 01-4.4 4.4c-2.4 2-3.8 2.8-4.2 2.8s-1.8-.8-4.2-2.8a26.5 26.5 0 01-4.4-4.4 5.6 5.6 0 01-1.1-3.5 4.8 4.8 0 014.7-4.6c1.9 0 3.2 1.5 3.9 2.4a1.5 1.5 0 001.1.8 1.7 1.7 0 001.2-.8c.8-.9 2.1-2.3 3.8-2.3a4.8 4.8 0 014.7 4.6 5.6 5.6 0 01-1.1 3.5z" class="a"/>
    </symbol>
    <symbol id="c" data-name="care-b" viewBox="0 0 50 50">
      <path d="M0 0h50v50H0z" class="a"/>
      <path d="M14.8 16.6h2.3l3.3 12a.8.8 0 00.8.6h10.3a.8.8 0 00.7-.5l3.7-8.6a.8.8 0 00-.1-.8.8.8 0 00-.7-.4H23.9a.8.8 0 000 1.6h10l-3 6.9h-9l-3.3-12a.8.8 0 00-.8-.6h-3a.8.8 0 000 1.6zM20.5 35a1.9 1.9 0 10-1.8-1.9 1.9 1.9 0 001.8 1.9zM32 35h.1a1.9 1.9 0 001.7-2 1.8 1.8 0 10-1.8 2z" class="b"/>
    </symbol>
    <symbol id="d" data-name="heart-b" viewBox="0 0 50 50">
      <path d="M0 0h50v50H0z" class="a"/>
      <path d="M36 21.8a6.2 6.2 0 00-1.8-4.1A5.9 5.9 0 0030 16c-2.3 0-3.9 1.8-4.8 2.7l-.2.2h-.1c-.8-.9-2.5-2.8-4.9-2.8a5.9 5.9 0 00-4.1 1.7 6.2 6.2 0 00-1.9 4 6.9 6.9 0 001.3 4.3 29.2 29.2 0 004.7 4.8c1.8 1.4 4 3.1 5 3.1s3.3-1.7 5-3.1a29.1 29.1 0 004.8-4.7 6.9 6.9 0 001.2-4.4zm-2.4 3.6a26.9 26.9 0 01-4.4 4.4c-2.4 2-3.8 2.8-4.2 2.8s-1.8-.8-4.2-2.8a26.5 26.5 0 01-4.4-4.4 5.6 5.6 0 01-1.1-3.5 4.8 4.8 0 014.7-4.6c1.9 0 3.2 1.5 3.9 2.4a1.5 1.5 0 001.1.8 1.7 1.7 0 001.2-.8c.8-.9 2.1-2.3 3.8-2.3a4.8 4.8 0 014.7 4.6 5.6 5.6 0 01-1.1 3.5z" class="b"/>
    </symbol>
    <style>
      .a{fill:#a3bbc8}.b{fill:#fff}
    </style>
  </defs>
  <use width="50" height="50" transform="translate(60)" xlink:href="#a"/>
  <use width="50" height="50" xlink:href="#b"/>
  <use width="50" height="50" transform="translate(60 60)" xlink:href="#c"/>
  <use width="50" height="50" transform="translate(0 60)" xlink:href="#d"/>
</svg>
